<svg width="36" height="36" viewBox="0 0 36 36" fill="none" xmlns="http://www.w3.org/2000/svg">
<rect width="36" height="36" rx="8" fill="#FEECEE"/>
<g clip-path="url(#clip0_167_947)">
<path d="M13.3713 15.0586L11.4202 15.8749C10.8697 16.1052 10.4333 16.5448 10.2069 17.0969C9.9805 17.6491 9.98271 18.2685 10.213 18.819L10.792 20.2028C11.0223 20.7533 11.4619 21.1897 12.014 21.4161C12.5662 21.6425 13.1856 21.6403 13.7361 21.41L15.6872 20.5936C15.7694 20.5584 15.8573 20.5381 15.9467 20.5338L21.1336 20.3392C21.2542 20.3346 21.3718 20.3009 21.4766 20.241C21.5814 20.1811 21.6702 20.0969 21.7355 19.9954C21.8007 19.8938 21.8405 19.7781 21.8515 19.6579C21.8624 19.5377 21.8442 19.4166 21.7984 19.305L18.5793 11.6113C18.532 11.5003 18.4586 11.4023 18.3653 11.3257C18.272 11.2492 18.1617 11.1962 18.0435 11.1714C17.9254 11.1466 17.8031 11.1507 17.6869 11.1833C17.5707 11.2159 17.4641 11.276 17.3761 11.3586L13.5961 14.9157C13.5303 14.9764 13.4542 15.0248 13.3713 15.0586ZM23.9378 14.7026L22.554 15.2816C22.3705 15.3583 22.164 15.3591 21.98 15.2836C21.7959 15.2082 21.6494 15.0627 21.5726 14.8792C21.4958 14.6957 21.4951 14.4892 21.5706 14.3051C21.646 14.1211 21.7915 13.9746 21.975 13.8978L23.3588 13.3188C23.5423 13.2421 23.7488 13.2413 23.9328 13.3168C24.1169 13.3923 24.2634 13.5377 24.3402 13.7212C24.4169 13.9047 24.4177 14.1112 24.3422 14.2953C24.2667 14.4793 24.1213 14.6258 23.9378 14.7026ZM21.6855 13.2059C21.5576 13.259 21.4175 13.2756 21.2807 13.2539C21.1439 13.2322 21.0158 13.1731 20.9106 13.083C20.7601 12.954 20.6669 12.7706 20.6513 12.573C20.6356 12.3754 20.6988 12.1797 20.8271 12.0285L21.9214 10.7577C21.9824 10.6745 22.0598 10.6048 22.149 10.553C22.2381 10.5011 22.337 10.4682 22.4395 10.4563C22.5419 10.4444 22.6457 10.4537 22.7444 10.4837C22.8431 10.5138 22.9345 10.5638 23.0129 10.6307C23.0914 10.6977 23.1552 10.7801 23.2004 10.8728C23.2455 10.9655 23.2711 11.0666 23.2754 11.1696C23.2798 11.2727 23.2629 11.3755 23.2257 11.4717C23.1885 11.5679 23.1319 11.6554 23.0593 11.7287L21.965 12.9995C21.8908 13.0908 21.7946 13.1618 21.6855 13.2059ZM25.0957 17.4701C24.9877 17.5168 24.8696 17.5355 24.7525 17.5243L23.0792 17.4114C22.9761 17.4115 22.874 17.3904 22.7794 17.3494C22.6848 17.3083 22.5997 17.2482 22.5294 17.1728C22.4591 17.0973 22.405 17.0082 22.3707 16.9109C22.3364 16.8137 22.3225 16.7104 22.3299 16.6075C22.3373 16.5047 22.3659 16.4044 22.4138 16.3131C22.4617 16.2217 22.5279 16.1413 22.6083 16.0767C22.6887 16.0121 22.7815 15.9648 22.8811 15.9377C22.9806 15.9106 23.0846 15.9043 23.1867 15.9193L24.8599 16.0322C25.0576 16.047 25.2413 16.1394 25.3711 16.2892C25.5008 16.4391 25.5659 16.6342 25.5522 16.832C25.5425 16.9701 25.4947 17.1029 25.4141 17.2155C25.3335 17.3282 25.2233 17.4163 25.0957 17.4701ZM17.9142 25.3528C17.5379 25.5125 17.1165 25.5302 16.7282 25.4026C16.3398 25.275 16.011 25.0108 15.8028 24.659L14.2262 22.0179L15.9767 21.2855L17.6987 21.2235L18.7172 22.9194C18.8405 23.1283 18.9178 23.3613 18.9438 23.6025C18.9698 23.8438 18.9439 24.0878 18.8678 24.3183C18.7918 24.5487 18.6674 24.7603 18.5029 24.9387C18.3384 25.1171 18.1377 25.2583 17.9142 25.3528Z" fill="#EB3D4D"/>
</g>
<defs>
<clipPath id="clip0_167_947">
<rect width="18" height="18" fill="white" transform="translate(6.22363 13.1711) rotate(-22.7044)"/>
</clipPath>
</defs>
</svg>
