<svg width="125" height="125" viewBox="0 0 125 125" fill="none" xmlns="http://www.w3.org/2000/svg">
<mask id="mask0_338_1152" style="mask-type:alpha" maskUnits="userSpaceOnUse" x="15" y="15" width="95" height="95">
<path fill-rule="evenodd" clip-rule="evenodd" d="M109.375 26.0417V98.9583C109.375 104.688 104.688 109.375 98.9583 109.375H26.0417C20.3125 109.375 15.625 104.688 15.625 98.9583V26.0417C15.625 20.3125 20.3125 15.625 26.0417 15.625H98.9583C104.688 15.625 109.375 20.3125 109.375 26.0417ZM57.2917 85.9896L46.3542 72.8125C45.2604 71.5104 43.2812 71.5625 42.2917 72.9167L29.3229 89.5833C27.9687 91.3021 29.1667 93.8021 31.3542 93.8021H93.8021C95.9375 93.8021 97.1875 91.3542 95.8854 89.6354L77.6042 65.2604C76.5625 63.8542 74.4792 63.8542 73.4375 65.2083L57.2917 85.9896Z" fill="black"/>
</mask>
<g mask="url(#mask0_338_1152)">
<rect width="125" height="125" fill="#FBEEDC"/>
</g>
</svg>
