<svg width="36" height="36" viewBox="0 0 36 36" fill="none" xmlns="http://www.w3.org/2000/svg">
<rect width="36" height="36" rx="8" fill="#FFF0EA"/>
<path d="M11.4373 9.91406C10.0913 9.91406 9 11.1266 9 12.6228V23.3778C9 24.8741 10.0913 26.0859 11.4373 26.0859H24.5621C25.9082 26.0859 26.9994 24.8741 26.9994 23.3778V12.6228C26.9994 11.1272 25.9082 9.91469 24.5621 9.91469L11.4373 9.91406ZM19.8203 22.7209C19.8203 23.1266 19.5249 23.4547 19.1599 23.4547H12.1793C11.8142 23.4547 11.5189 23.1259 11.5189 22.7209V22.0766C11.5189 20.7928 12.4554 19.7522 13.6108 19.7522H14.1508C14.4309 19.7522 14.6582 19.4997 14.6582 19.1884C14.6582 19.0728 14.616 18.9622 14.5418 18.8816C14.2324 18.5472 13.9714 18.0991 13.7813 17.6159C13.7486 17.6366 13.7138 17.6484 13.6766 17.6484C13.3734 17.6484 13.0174 16.9041 13.0174 16.3966C13.0174 15.8891 13.0596 15.4778 13.3628 15.4778C13.3886 15.4778 13.4168 15.4847 13.4443 15.4903C13.4663 14.1153 13.6969 12.4016 15.6701 12.4016C17.5618 12.4016 17.8746 14.1191 17.8965 15.4953C17.9353 15.4841 17.9736 15.4778 18.0101 15.4778C18.3133 15.4778 18.3549 15.8891 18.3549 16.3966C18.3549 16.9041 17.9989 17.6484 17.6957 17.6484C17.6484 17.6484 17.6074 17.6259 17.568 17.5934C17.3768 18.0859 17.1129 18.5428 16.7985 18.8822C16.7243 18.9628 16.6821 19.0741 16.6821 19.1891C16.6821 19.5003 16.9093 19.7528 17.1894 19.7528H17.7294C18.8848 19.7528 19.8214 20.7934 19.8214 22.0772V22.7216H19.8203V22.7209ZM24.4817 21.8903C24.4817 22.1903 24.2618 22.4341 23.9918 22.4341H20.4278V22.0766C20.4278 21.4909 20.2742 20.9453 20.0121 20.4834H23.9918C24.2623 20.4834 24.4817 20.7272 24.4817 21.0272V21.8903ZM24.4817 18.3359C24.4817 18.6366 24.2618 18.8797 23.9918 18.8797H17.8976V18.3628C17.9117 18.3347 17.928 18.3091 17.9421 18.2803C18.4129 18.1178 18.7549 17.5103 18.8927 16.9291H23.9918C24.2618 16.9291 24.4806 17.1728 24.4806 17.4728V18.3359H24.4817ZM24.4817 14.7822C24.4817 15.0828 24.2618 15.3259 23.9918 15.3259H18.7734C18.6964 15.1591 18.603 15.0203 18.4781 14.9347C18.4275 14.3022 18.3066 13.7909 18.1384 13.3753H23.9923C24.2629 13.3753 24.4823 13.6191 24.4823 13.9191L24.4817 14.7822Z" fill="#FF7F0A"/>
</svg>
